<svg width="95" height="37" viewBox="0 0 95 37" fill="none" xmlns="http://www.w3.org/2000/svg">
<path d="M17.0508 24.2342H5.02583L2.43583 30H0.0616667L9.92833 8.41666H12.1792L22.0458 30H19.6408L17.0508 24.2342ZM16.2183 22.3842L11.0383 10.7908L5.85833 22.3842H16.2183ZM33.5096 13.6583C35.0307 13.6583 36.4079 14.0078 37.6412 14.7067C38.8746 15.385 39.8407 16.3511 40.5396 17.605C41.2385 18.8589 41.5879 20.2875 41.5879 21.8908C41.5879 23.5147 41.2385 24.9536 40.5396 26.2075C39.8407 27.4614 38.8746 28.4378 37.6412 29.1367C36.4285 29.815 35.0512 30.1542 33.5096 30.1542C32.194 30.1542 31.0018 29.8869 29.9329 29.3525C28.8846 28.7975 28.0212 27.9958 27.3429 26.9475V35.9817H25.1537V13.7817H27.2504V16.9883C27.9082 15.9194 28.7715 15.0972 29.8404 14.5217C30.9299 13.9461 32.1529 13.6583 33.5096 13.6583ZM33.3554 28.2117C34.486 28.2117 35.5137 27.9547 36.4387 27.4408C37.3637 26.9064 38.0832 26.1561 38.5971 25.19C39.1315 24.2239 39.3987 23.1242 39.3987 21.8908C39.3987 20.6575 39.1315 19.5681 38.5971 18.6225C38.0832 17.6564 37.3637 16.9061 36.4387 16.3717C35.5137 15.8372 34.486 15.57 33.3554 15.57C32.2043 15.57 31.1662 15.8372 30.2412 16.3717C29.3368 16.9061 28.6174 17.6564 28.0829 18.6225C27.569 19.5681 27.3121 20.6575 27.3121 21.8908C27.3121 23.1242 27.569 24.2239 28.0829 25.19C28.6174 26.1561 29.3368 26.9064 30.2412 27.4408C31.1662 27.9547 32.2043 28.2117 33.3554 28.2117ZM46.0506 13.7817H48.2397V30H46.0506V13.7817ZM47.1606 10.2358C46.7083 10.2358 46.3281 10.0817 46.0197 9.77333C45.7114 9.465 45.5572 9.095 45.5572 8.66333C45.5572 8.25222 45.7114 7.8925 46.0197 7.58416C46.3281 7.27583 46.7083 7.12166 47.1606 7.12166C47.6128 7.12166 47.9931 7.27583 48.3014 7.58416C48.6097 7.87194 48.7639 8.22139 48.7639 8.6325C48.7639 9.08472 48.6097 9.465 48.3014 9.77333C47.9931 10.0817 47.6128 10.2358 47.1606 10.2358ZM60.3435 21.86L56.5202 25.375V30H54.331V7.12166H56.5202V22.6308L66.2018 13.7817H68.9152L61.9777 20.4108L69.5627 30H66.8802L60.3435 21.86Z" fill="white"/>
<circle cx="81" cy="21" r="9" fill="#13AA57"/>
<circle cx="81" cy="21" r="4" fill="white"/>
<circle cx="91.5" cy="8.5" r="3.5" fill="#13AA57"/>
</svg>
