<svg width="35" height="35" viewBox="0 0 35 35" fill="none" xmlns="http://www.w3.org/2000/svg">
<path d="M28.8415 9.31445H25.6157C25.3036 9.31445 25.0236 9.11612 24.9156 8.823L24.0727 6.50133C23.7169 5.51695 22.7734 4.85779 21.7277 4.85779H13.2738C12.2267 4.85779 11.2846 5.51695 10.9302 6.49987L10.0844 8.82154C9.97648 9.11612 9.69502 9.31445 9.3844 9.31445H6.15856C3.88794 9.31445 2.04169 11.1592 2.04169 13.4284V26.0284C2.04169 28.2976 3.88794 30.1424 6.1571 30.1424H28.8415C31.1121 30.1424 32.9569 28.2961 32.9569 26.0284V13.4284C32.9584 11.1592 31.1121 9.31445 28.8415 9.31445ZM31.2084 26.0284C31.2084 27.3336 30.1452 28.3938 28.8415 28.3938H6.15856C4.85335 28.3938 3.79169 27.3322 3.79169 26.0284V13.4284C3.79169 12.1232 4.85481 11.063 6.15856 11.063H9.3844C10.4286 11.063 11.3692 10.4038 11.7279 9.42091L12.5738 7.09633C12.6788 6.80466 12.9617 6.60633 13.2723 6.60633H21.7263C22.0384 6.60633 22.3198 6.80466 22.4263 7.09779L23.2706 9.42237C23.6294 10.4038 24.5715 11.063 25.6142 11.063H28.84C30.1452 11.063 31.2069 12.1247 31.2069 13.4284V26.0284H31.2084ZM17.5 13.637C14.2027 13.637 11.5209 16.3188 11.5209 19.6161C11.5209 22.9134 14.2027 25.5953 17.5 25.5953C20.7973 25.5953 23.4792 22.9134 23.4792 19.6161C23.4792 16.3188 20.7973 13.637 17.5 13.637ZM17.5 23.8453C15.1681 23.8453 13.2709 21.9465 13.2709 19.6161C13.2709 17.2857 15.1696 15.387 17.5 15.387C19.8304 15.387 21.7292 17.2857 21.7292 19.6161C21.7292 21.9465 19.8319 23.8453 17.5 23.8453Z" fill="#263238"/>
</svg>
