<svg width="43" height="43" viewBox="0 0 43 43" fill="none" xmlns="http://www.w3.org/2000/svg">
<path d="M26.8734 26.0989C26.81 28.5173 24.8296 30.4584 22.3958 30.4584H9.85417C7.38039 30.4584 5.375 28.453 5.375 25.9792V17.0209C5.375 14.5471 7.38039 12.5417 9.85417 12.5417H19.1547L18.2588 10.75H11.6458C11.1511 10.75 10.75 10.349 10.75 9.85421C10.75 9.35945 11.1511 8.95837 11.6458 8.95837H18.8125C19.1518 8.95837 19.462 9.15008 19.6138 9.45358L21.1578 12.5417H22.3958C24.8296 12.5417 26.81 14.4827 26.8734 16.9012L30.8661 13.574C32.6144 12.117 35.2129 12.3532 36.6699 14.1016C37.287 14.8422 37.625 15.7757 37.625 16.7397V26.2604C37.625 28.5362 35.78 30.3812 33.5042 30.3812C32.5402 30.3812 31.6066 30.0432 30.8661 29.4261L26.8734 26.0989ZM26.875 23.768L32.0131 28.0497C32.4317 28.3985 32.9593 28.5895 33.5042 28.5895C34.7905 28.5895 35.8333 27.5467 35.8333 26.2604V16.7397C35.8333 16.1948 35.6423 15.6672 35.2935 15.2486C34.47 14.2604 33.0013 14.1269 32.0131 14.9504L26.875 19.2321V23.768ZM25.0833 25.9792V17.0209C25.0833 15.5366 23.8801 14.3334 22.3958 14.3334H20.6236C20.6111 14.3336 20.5986 14.3336 20.5861 14.3334H9.85417C8.3699 14.3334 7.16667 15.5366 7.16667 17.0209V25.9792C7.16667 27.4635 8.3699 28.6667 9.85417 28.6667H22.3958C23.8801 28.6667 25.0833 27.4635 25.0833 25.9792ZM9.85417 17.9167C9.35941 17.9167 8.95833 17.5156 8.95833 17.0209C8.95833 16.5261 9.35941 16.125 9.85417 16.125H15.2292C15.7239 16.125 16.125 16.5261 16.125 17.0209C16.125 17.5156 15.7239 17.9167 15.2292 17.9167H9.85417ZM15.2292 26.875C14.7344 26.875 14.3333 26.474 14.3333 25.9792C14.3333 25.4845 14.7344 25.0834 15.2292 25.0834H17.0208C17.5156 25.0834 17.9167 25.4845 17.9167 25.9792C17.9167 26.474 17.5156 26.875 17.0208 26.875H15.2292ZM20.6042 26.875C20.1094 26.875 19.7083 26.474 19.7083 25.9792C19.7083 25.4845 20.1094 25.0834 20.6042 25.0834H22.3958C22.8906 25.0834 23.2917 25.4845 23.2917 25.9792C23.2917 26.474 22.8906 26.875 22.3958 26.875H20.6042Z" fill="#263238"/>
</svg>
