<svg width="35" height="35" viewBox="0 0 35 35" fill="none" xmlns="http://www.w3.org/2000/svg">
<path d="M25.8787 23.3334C27.0618 21.638 27.7084 19.619 27.7084 17.5C27.7084 15.3811 27.0618 13.3621 25.8787 11.6667H24.7917C23.9863 11.6667 23.3334 11.0138 23.3334 10.2084V9.12136C21.6372 7.93781 19.6184 7.29171 17.5 7.29171C15.3863 7.29171 13.3707 7.93475 11.6738 9.11647L11.6667 9.12132V10.2084C11.6667 11.0138 11.0138 11.6667 10.2084 11.6667H9.12137C7.93714 13.3641 7.29171 15.3826 7.29171 17.5C7.29171 19.6182 7.93767 21.6369 9.12137 23.3334H10.2084C11.0138 23.3334 11.6667 23.9863 11.6667 24.7917V25.8787C13.3624 27.062 15.3814 27.7084 17.5 27.7084C19.6189 27.7084 21.6379 27.0618 23.3334 25.8787V24.7917C23.3334 23.9863 23.9863 23.3334 24.7917 23.3334H25.8787ZM27.3204 23.8012C27.5612 24.0613 27.7084 24.4093 27.7084 24.7917V26.25C27.7084 27.0555 27.0555 27.7084 26.25 27.7084H24.7917C24.4093 27.7084 24.0613 27.5612 23.8012 27.3204C21.9416 28.5163 19.7694 29.1667 17.5 29.1667C15.2308 29.1667 13.0587 28.5165 11.1989 27.3204C10.9388 27.5612 10.5908 27.7084 10.2084 27.7084H8.75004C7.94463 27.7084 7.29171 27.0555 7.29171 26.25V24.7917C7.29171 24.4093 7.43889 24.0613 7.67969 23.8012C6.48322 21.9407 5.83337 19.7687 5.83337 17.5C5.83337 15.2321 6.48271 13.0603 7.67971 11.1989C7.43889 10.9388 7.29171 10.5908 7.29171 10.2084V8.75004C7.29171 7.94463 7.94463 7.29171 8.75004 7.29171H10.2084C10.5908 7.29171 10.9388 7.4389 11.1989 7.67972C13.0614 6.48214 15.2329 5.83337 17.5 5.83337C19.7689 5.83337 21.9409 6.48335 23.8012 7.67969C24.0613 7.43889 24.4093 7.29171 24.7917 7.29171H26.25C27.0555 7.29171 27.7084 7.94463 27.7084 8.75004V10.2084C27.7084 10.5908 27.5612 10.9388 27.3204 11.1989C28.5163 13.0584 29.1667 15.2306 29.1667 17.5C29.1667 19.7695 28.5163 21.9417 27.3204 23.8012ZM8.75004 8.75004V10.2084H10.2084V8.75004H8.75004ZM24.7917 8.75004V10.2084H26.25V8.75004H24.7917ZM8.75004 24.7917V26.25H10.2084V24.7917H8.75004ZM24.7917 24.7917V26.25H26.25V24.7917H24.7917Z" fill="#263238"/>
</svg>
