<svg width="43" height="43" viewBox="0 0 43 43" fill="none" xmlns="http://www.w3.org/2000/svg">
<path d="M17.9173 32.2009C18.2112 32.2334 18.5099 32.25 18.8125 32.25H24.1875C24.5053 32.25 24.8189 32.2316 25.1272 32.1959C25.0983 31.2314 24.3074 30.4584 23.336 30.4584H19.7083C18.7352 30.4584 17.9433 31.2341 17.9173 32.2009ZM16.1528 31.8011C16.3737 30.034 17.8814 28.6667 19.7083 28.6667H23.336C25.1578 28.6667 26.6621 30.0262 26.8898 31.786C29.7437 30.771 31.8569 28.1938 32.2008 25.0834H10.7992C11.1447 28.2093 13.2774 30.7967 16.1528 31.8011ZM21.5 39.4167C11.6049 39.4167 3.58331 31.3951 3.58331 21.5C3.58331 11.6049 11.6049 3.58337 21.5 3.58337C31.3951 3.58337 39.4166 11.6049 39.4166 21.5C39.4166 31.3951 31.3951 39.4167 21.5 39.4167ZM21.5 37.625C30.4056 37.625 37.625 30.4056 37.625 21.5C37.625 12.5944 30.4056 5.37504 21.5 5.37504C12.5944 5.37504 5.37498 12.5944 5.37498 21.5C5.37498 30.4056 12.5944 37.625 21.5 37.625ZM16.125 19.7084C15.1355 19.7084 14.3333 18.9062 14.3333 17.9167C14.3333 16.9272 15.1355 16.125 16.125 16.125C17.1145 16.125 17.9166 16.9272 17.9166 17.9167C17.9166 18.9062 17.1145 19.7084 16.125 19.7084ZM26.875 19.7084C25.8855 19.7084 25.0833 18.9062 25.0833 17.9167C25.0833 16.9272 25.8855 16.125 26.875 16.125C27.8645 16.125 28.6666 16.9272 28.6666 17.9167C28.6666 18.9062 27.8645 19.7084 26.875 19.7084ZM9.85415 23.2917H33.1458C33.6406 23.2917 34.0416 23.6928 34.0416 24.1875C34.0416 29.6298 29.6298 34.0417 24.1875 34.0417H18.8125C13.3702 34.0417 8.95831 29.6298 8.95831 24.1875C8.95831 23.6928 9.35939 23.2917 9.85415 23.2917Z" fill="black"/>
</svg>
