<svg width="30" height="30" viewBox="0 0 30 30" fill="none" xmlns="http://www.w3.org/2000/svg">
<path d="M3.3125 9.525C3.52165 9.52522 3.72282 9.44479 3.87416 9.30043C4.0255 9.15608 4.11535 8.95892 4.125 8.75V5.2625L11.125 12.2625C11.2775 12.415 11.4843 12.5007 11.7 12.5007C11.9157 12.5007 12.1225 12.415 12.275 12.2625C12.4275 12.11 12.5132 11.9032 12.5132 11.6875C12.5132 11.4718 12.4275 11.265 12.275 11.1125L5.2625 4.125H8.75C8.8567 4.125 8.96235 4.10398 9.06093 4.06315C9.15951 4.02232 9.24908 3.96247 9.32452 3.88702C9.39997 3.81158 9.45982 3.72201 9.50065 3.62343C9.54148 3.52485 9.5625 3.4192 9.5625 3.3125C9.5625 3.2058 9.54148 3.10015 9.50065 3.00157C9.45982 2.90299 9.39997 2.81342 9.32452 2.73798C9.24908 2.66253 9.15951 2.60268 9.06093 2.56185C8.96235 2.52102 8.8567 2.5 8.75 2.5H3.3125C3.09701 2.5 2.89035 2.5856 2.73798 2.73798C2.5856 2.89035 2.5 3.09701 2.5 3.3125V8.75C2.50965 8.95892 2.5995 9.15608 2.75084 9.30043C2.90218 9.44479 3.10335 9.52522 3.3125 9.525Z" fill="white"/>
<path d="M20.475 3.3125C20.4747 3.52165 20.5552 3.72282 20.6995 3.87416C20.8439 4.0255 21.041 4.11535 21.25 4.125H24.7L17.7 11.125C17.5475 11.2775 17.4618 11.4843 17.4618 11.7C17.4618 11.9157 17.5475 12.1225 17.7 12.275C17.8525 12.4275 18.0593 12.5132 18.275 12.5132C18.4906 12.5132 18.6975 12.4275 18.85 12.275L25.85 5.275V8.75C25.85 8.9688 25.9369 9.17865 26.0916 9.33336C26.2463 9.48808 26.4562 9.575 26.675 9.575C26.8938 9.575 27.1036 9.48808 27.2583 9.33336C27.413 9.17865 27.5 8.9688 27.5 8.75V3.3125C27.5 3.09701 27.4144 2.89035 27.262 2.73798C27.1096 2.5856 26.903 2.5 26.6875 2.5H21.25C21.041 2.50965 20.8439 2.5995 20.6995 2.75084C20.5552 2.90218 20.4747 3.10335 20.475 3.3125Z" fill="white"/>
<path d="M26.6875 20.475C26.472 20.475 26.2653 20.5606 26.113 20.713C25.9606 20.8654 25.875 21.072 25.875 21.2875V24.7375L18.875 17.7375C18.7225 17.585 18.5157 17.4993 18.3 17.4993C18.0843 17.4993 17.8775 17.585 17.725 17.7375C17.5725 17.89 17.4868 18.0968 17.4868 18.3125C17.4868 18.5282 17.5725 18.735 17.725 18.8875L24.725 25.8875H21.25C21.0534 25.912 20.8726 26.0075 20.7415 26.156C20.6104 26.3044 20.5381 26.4957 20.5381 26.6938C20.5381 26.8918 20.6104 27.0831 20.7415 27.2315C20.8726 27.38 21.0534 27.4755 21.25 27.5H26.65C26.8655 27.5 27.0721 27.4144 27.2245 27.262C27.3769 27.1097 27.4625 26.903 27.4625 26.6875V21.25C27.4533 21.0474 27.3687 20.8556 27.2253 20.7121C27.0819 20.5687 26.8901 20.4842 26.6875 20.475Z" fill="white"/>
<path d="M9.525 26.6875C9.52522 26.4783 9.44479 26.2772 9.30043 26.1258C9.15608 25.9745 8.95892 25.8846 8.75 25.875H5.2625L12.2625 18.875C12.338 18.7995 12.3979 18.7098 12.4388 18.6112C12.4796 18.5125 12.5007 18.4068 12.5007 18.3C12.5007 18.1932 12.4796 18.0875 12.4388 17.9888C12.3979 17.8901 12.338 17.8005 12.2625 17.725C12.187 17.6495 12.0973 17.5896 11.9987 17.5487C11.9 17.5079 11.7943 17.4868 11.6875 17.4868C11.5807 17.4868 11.475 17.5079 11.3763 17.5487C11.2777 17.5896 11.188 17.6495 11.1125 17.725L4.1125 24.725V21.25C4.08798 21.0534 3.99251 20.8726 3.84404 20.7415C3.69557 20.6104 3.50432 20.5381 3.30625 20.5381C3.10818 20.5381 2.91693 20.6104 2.76846 20.7415C2.61999 20.8726 2.52452 21.0534 2.5 21.25V26.65C2.5 26.8655 2.5856 27.0721 2.73798 27.2245C2.89035 27.3769 3.09701 27.4625 3.3125 27.4625H8.75C8.9526 27.4533 9.14445 27.3687 9.28785 27.2253C9.43126 27.0819 9.51585 26.8901 9.525 26.6875Z" fill="white"/>
</svg>
