<svg width="26" height="25" viewBox="0 0 26 25" fill="none" xmlns="http://www.w3.org/2000/svg">
<path fill-rule="evenodd" clip-rule="evenodd" d="M12.8252 0C9.43041 0 9.00473 0.0143883 7.67148 0.0752211C6.341 0.135904 5.43231 0.347229 4.63722 0.656255C3.81523 0.975651 3.11814 1.40307 2.42318 2.09798C1.72827 2.79294 1.30085 3.49004 0.98145 4.31202C0.672424 5.10711 0.461108 6.01579 0.400424 7.34626C0.339592 8.67952 0.325195 9.1052 0.325195 12.5C0.325195 15.8948 0.339592 16.3205 0.400424 17.6537C0.461108 18.9842 0.672424 19.8929 0.98145 20.688C1.30085 21.51 1.72827 22.2071 2.42318 22.902C3.11814 23.5969 3.81523 24.0243 4.63722 24.3438C5.43231 24.6528 6.341 24.8641 7.67148 24.9248C9.00473 24.9856 9.43041 25 12.8252 25C16.22 25 16.6457 24.9856 17.9789 24.9248C19.3094 24.8641 20.2181 24.6528 21.0132 24.3438C21.8351 24.0243 22.5322 23.5969 23.2272 22.902C23.9221 22.2071 24.3495 21.51 24.669 20.688C24.9779 19.8929 25.1893 18.9842 25.25 17.6537C25.3108 16.3205 25.3252 15.8948 25.3252 12.5C25.3252 9.1052 25.3108 8.67952 25.25 7.34626C25.1893 6.01579 24.9779 5.10711 24.669 4.31202C24.3495 3.49004 23.9221 2.79294 23.2272 2.09798C22.5322 1.40307 21.8351 0.975651 21.0132 0.656255C20.2181 0.347229 19.3094 0.135904 17.9789 0.0752211C16.6457 0.0143883 16.22 0 12.8252 0ZM12.8252 2.25224C16.1628 2.25224 16.5582 2.265 17.8763 2.32514C19.095 2.38071 19.7569 2.58435 20.1974 2.75553C20.7808 2.98229 21.1972 3.25316 21.6346 3.6906C22.072 4.12799 22.3429 4.54439 22.5696 5.12786C22.7408 5.56833 22.9445 6.23019 23 7.44893C23.0602 8.767 23.0729 9.16236 23.0729 12.5C23.0729 15.8376 23.0602 16.233 23 17.5511C22.9445 18.7698 22.7408 19.4317 22.5696 19.8721C22.3429 20.4556 22.072 20.872 21.6346 21.3094C21.1972 21.7468 20.7808 22.0177 20.1974 22.2445C19.7569 22.4157 19.095 22.6193 17.8763 22.6749C16.5584 22.735 16.1631 22.7478 12.8252 22.7478C9.48732 22.7478 9.09205 22.735 7.77412 22.6749C6.55539 22.6193 5.89352 22.4157 5.45305 22.2445C4.86959 22.0177 4.45318 21.7468 4.01579 21.3094C3.5784 20.872 3.30748 20.4556 3.08073 19.8721C2.90954 19.4317 2.70591 18.7698 2.65033 17.5511C2.59019 16.233 2.57744 15.8376 2.57744 12.5C2.57744 9.16236 2.59019 8.767 2.65033 7.44893C2.70591 6.23019 2.90954 5.56833 3.08073 5.12786C3.30748 4.54439 3.57835 4.12799 4.01579 3.6906C4.45318 3.25316 4.86959 2.98229 5.45305 2.75553C5.89352 2.58435 6.55539 2.38071 7.77412 2.32514C9.0922 2.265 9.48757 2.25224 12.8252 2.25224ZM12.8252 6.08109C9.28011 6.08109 6.40628 8.95491 6.40628 12.5C6.40628 16.0451 9.28011 18.9189 12.8252 18.9189C16.3703 18.9189 19.2441 16.0451 19.2441 12.5C19.2441 8.95491 16.3703 6.08109 12.8252 6.08109ZM12.8252 16.6667C10.524 16.6667 8.65853 14.8012 8.65853 12.5C8.65853 10.1988 10.524 8.33333 12.8252 8.33333C15.1264 8.33333 16.9919 10.1988 16.9919 12.5C16.9919 14.8012 15.1264 16.6667 12.8252 16.6667ZM20.9977 5.82748C20.9977 6.65592 20.3261 7.32746 19.4977 7.32746C18.6693 7.32746 17.9977 6.65592 17.9977 5.82748C17.9977 4.99905 18.6693 4.32746 19.4977 4.32746C20.3261 4.32746 20.9977 4.99905 20.9977 5.82748Z" fill="#DBDBDB"/>
</svg>
