<svg width="26" height="25" viewBox="0 0 26 25" fill="none" xmlns="http://www.w3.org/2000/svg">
<g clip-path="url(#clip0_0_46)">
<path fill-rule="evenodd" clip-rule="evenodd" d="M12.8253 0C9.43053 0 9.00486 0.0143883 7.6716 0.0752211C6.34112 0.135904 5.43243 0.347229 4.63734 0.656255C3.81535 0.975651 3.11827 1.40307 2.42331 2.09798C1.72839 2.79294 1.30097 3.49004 0.981572 4.31202C0.672546 5.10711 0.46123 6.01579 0.400546 7.34626C0.339714 8.67952 0.325317 9.1052 0.325317 12.5C0.325317 15.8948 0.339714 16.3205 0.400546 17.6537C0.46123 18.9842 0.672546 19.8929 0.981572 20.688C1.30097 21.51 1.72839 22.2071 2.42331 22.902C3.11827 23.5969 3.81535 24.0243 4.63734 24.3438C5.43243 24.6528 6.34112 24.8641 7.6716 24.9248C9.00486 24.9856 9.43053 25 12.8253 25C16.2201 25 16.6458 24.9856 17.979 24.9248C19.3095 24.8641 20.2182 24.6528 21.0133 24.3438C21.8353 24.0243 22.5324 23.5969 23.2273 22.902C23.9222 22.2071 24.3496 21.51 24.6691 20.688C24.9781 19.8929 25.1894 18.9842 25.2501 17.6537C25.3109 16.3205 25.3253 15.8948 25.3253 12.5C25.3253 9.1052 25.3109 8.67952 25.2501 7.34626C25.1894 6.01579 24.9781 5.10711 24.6691 4.31202C24.3496 3.49004 23.9222 2.79294 23.2273 2.09798C22.5324 1.40307 21.8353 0.975651 21.0133 0.656255C20.2182 0.347229 19.3095 0.135904 17.979 0.0752211C16.6458 0.0143883 16.2201 0 12.8253 0ZM12.8253 2.25224C16.163 2.25224 16.5583 2.265 17.8764 2.32514C19.0951 2.38071 19.757 2.58435 20.1975 2.75553C20.7809 2.98229 21.1973 3.25316 21.6347 3.6906C22.0722 4.12799 22.343 4.54439 22.5698 5.12786C22.741 5.56833 22.9446 6.23019 23.0002 7.44893C23.0603 8.767 23.0731 9.16236 23.0731 12.5C23.0731 15.8376 23.0603 16.233 23.0002 17.5511C22.9446 18.7698 22.741 19.4317 22.5698 19.8721C22.343 20.4556 22.0722 20.872 21.6347 21.3094C21.1973 21.7468 20.7809 22.0177 20.1975 22.2445C19.757 22.4157 19.0951 22.6193 17.8764 22.6749C16.5585 22.735 16.1632 22.7478 12.8253 22.7478C9.48744 22.7478 9.09217 22.735 7.77424 22.6749C6.55551 22.6193 5.89364 22.4157 5.45318 22.2445C4.86971 22.0177 4.4533 21.7468 4.01591 21.3094C3.57852 20.872 3.30761 20.4556 3.08085 19.8721C2.90966 19.4317 2.70603 18.7698 2.65045 17.5511C2.59032 16.233 2.57756 15.8376 2.57756 12.5C2.57756 9.16236 2.59032 8.767 2.65045 7.44893C2.70603 6.23019 2.90966 5.56833 3.08085 5.12786C3.30761 4.54439 3.57847 4.12799 4.01591 3.6906C4.4533 3.25316 4.86971 2.98229 5.45318 2.75553C5.89364 2.58435 6.55551 2.38071 7.77424 2.32514C9.09232 2.265 9.48769 2.25224 12.8253 2.25224ZM12.8253 6.08109C9.28023 6.08109 6.40641 8.95491 6.40641 12.5C6.40641 16.0451 9.28023 18.9189 12.8253 18.9189C16.3704 18.9189 19.2442 16.0451 19.2442 12.5C19.2442 8.95491 16.3704 6.08109 12.8253 6.08109ZM12.8253 16.6667C10.5241 16.6667 8.65865 14.8012 8.65865 12.5C8.65865 10.1988 10.5241 8.33333 12.8253 8.33333C15.1265 8.33333 16.992 10.1988 16.992 12.5C16.992 14.8012 15.1265 16.6667 12.8253 16.6667ZM20.9979 5.82748C20.9979 6.65592 20.3263 7.32746 19.4978 7.32746C18.6694 7.32746 17.9979 6.65592 17.9979 5.82748C17.9979 4.99905 18.6694 4.32746 19.4978 4.32746C20.3263 4.32746 20.9979 4.99905 20.9979 5.82748Z" fill="#DBDBDB"/>
</g>
<rect x="0.825317" y="0.5" width="24" height="24" stroke="white"/>
<defs>
<clipPath id="clip0_0_46">
<rect x="0.325317" width="25" height="25" fill="white"/>
</clipPath>
</defs>
</svg>
