<svg width="17" height="14" viewBox="0 0 17 14" fill="none" xmlns="http://www.w3.org/2000/svg">
<path fill-rule="evenodd" clip-rule="evenodd" d="M0 14H6.39498V6.77778H2.82445C2.93103 5.44444 3.25078 4.44444 3.7837 3.72222C4.36991 3 5.22257 2.44444 6.39498 2.11111V0C6.02194 0 5.38245 0.166667 4.36991 0.555556C3.41066 0.944444 2.5047 1.55556 1.81191 2.27778C1.11912 3 0.639498 3.83333 0.373041 4.77778C0.213166 5.5 0.106583 6.11111 0.0532915 6.77778L0 7.61111V14ZM10.605 14H17V6.77778H13.4295C13.5361 5.44444 13.8558 4.44444 14.3887 3.72222C14.9217 3 15.8276 2.44444 17 2.11111V0C16.627 0 15.9342 0.166667 14.9749 0.555556C13.9624 0.944444 13.1097 1.55556 12.3637 2.27778C11.7242 3 11.2445 3.83333 10.9781 4.77778C10.8182 5.5 10.7116 6.11111 10.6583 6.77778L10.605 7.61111V14Z" fill="#13AA57"/>
</svg>
