<svg width="35" height="35" viewBox="0 0 35 35" fill="none" xmlns="http://www.w3.org/2000/svg">
<path d="M27.7084 19.0385L21.3486 16.4135C21.2452 16.3722 21.1567 16.3007 21.0945 16.2084C21.0323 16.116 20.9994 16.0071 21 15.8958V9.93121C21.0018 9.44096 20.9063 8.95524 20.719 8.50215C20.5318 8.04906 20.2565 7.63762 19.9092 7.29163C19.4524 6.83993 18.8877 6.51252 18.2687 6.34049C17.6498 6.16845 16.9971 6.15752 16.3727 6.30871C15.5466 6.53744 14.8197 7.03375 14.3059 7.7199C13.7921 8.40605 13.5204 9.24327 13.5334 10.1004V21.401L11.4917 19.3593C11.1276 19.0073 10.697 18.7314 10.2249 18.5478C9.75292 18.3643 9.24902 18.2767 8.74274 18.2903C8.23646 18.3039 7.73798 18.4183 7.27648 18.6269C6.81498 18.8355 6.39973 19.1341 6.05504 19.5052C5.42952 20.2593 5.1129 21.2223 5.16891 22.2005C5.22492 23.1786 5.64941 24.0993 6.35691 24.777L13.8761 32.2962C14.0897 32.5105 14.3436 32.6804 14.6232 32.796C14.9028 32.9117 15.2025 32.9708 15.505 32.97H25.76C26.2781 32.9705 26.7811 32.7961 27.1877 32.475C27.5942 32.154 27.8805 31.7051 28 31.201L29.9119 23.377C30.1275 22.5098 30.0234 21.5939 29.6187 20.7971C29.214 20.0004 28.5358 19.376 27.7084 19.0385ZM28.2086 22.9614L26.2967 30.7839C26.2676 30.9048 26.1987 31.0123 26.1011 31.0893C26.0035 31.1662 25.8829 31.2082 25.7586 31.2083H15.5021C15.4293 31.2086 15.3571 31.1944 15.2898 31.1666C15.2224 31.1388 15.1613 31.098 15.1098 31.0464L7.59066 23.5273C7.20265 23.1605 6.9649 22.6625 6.92366 22.1302C6.88242 21.5978 7.04064 21.0692 7.36754 20.647C7.547 20.4458 7.76583 20.2836 8.01049 20.1703C8.25515 20.057 8.52044 19.9951 8.78998 19.9884C9.05951 19.9817 9.32755 20.0303 9.57754 20.1313C9.82752 20.2323 10.0541 20.3835 10.2434 20.5756L13.79 24.1223C13.9124 24.2445 14.0682 24.3277 14.2379 24.3614C14.4075 24.3951 14.5833 24.3778 14.7431 24.3116C14.9029 24.2454 15.0395 24.1334 15.1357 23.9896C15.2318 23.8459 15.2832 23.6769 15.2834 23.5039V10.0873C15.2688 9.62246 15.4083 9.1659 15.6803 8.78869C15.9522 8.41149 16.3413 8.13484 16.7869 8.00184C17.1216 7.91844 17.4722 7.92324 17.8045 8.01576C18.1367 8.10829 18.4393 8.28538 18.6827 8.52975C18.8659 8.71348 19.0108 8.93166 19.1092 9.1717C19.2076 9.41174 19.2574 9.66888 19.2559 9.92829V15.8958C19.2549 16.3523 19.3899 16.7987 19.6437 17.1782C19.8974 17.5576 20.2584 17.8529 20.6807 18.0264L27.039 20.6514C27.479 20.8315 27.8394 21.1642 28.054 21.5885C28.2685 22.0128 28.3229 22.5003 28.2071 22.9614H28.2086ZM10.0305 13.456C9.53383 12.3954 9.2764 11.2387 9.2764 10.0676C9.2764 8.89647 9.53383 7.7397 10.0305 6.67913C10.4199 5.82659 10.9582 5.05029 11.62 4.38663C13.1292 2.88579 15.1711 2.04333 17.2995 2.04333C19.4279 2.04333 21.4698 2.88579 22.979 4.38663C23.647 5.05334 24.1902 5.83418 24.5832 6.69225C25.0775 7.75167 25.3336 8.90653 25.3336 10.0756C25.3336 11.2446 25.0775 12.3995 24.5832 13.4589C24.5369 13.5667 24.4694 13.6641 24.3847 13.7452C24.3 13.8264 24.1999 13.8897 24.0902 13.9314C23.9806 13.9731 23.8637 13.9923 23.7464 13.9879C23.6292 13.9835 23.5141 13.9556 23.4079 13.9058C23.3017 13.8561 23.2065 13.7854 23.1282 13.6981C23.0498 13.6109 22.9898 13.5087 22.9517 13.3978C22.9136 13.2868 22.8982 13.1694 22.9064 13.0524C22.9146 12.9353 22.9462 12.8212 22.9994 12.7166C23.3867 11.8882 23.5875 10.9849 23.5875 10.0705C23.5875 9.15602 23.3867 8.25272 22.9994 7.42434C22.6953 6.75602 22.274 6.14753 21.7555 5.62767C20.5736 4.45215 18.9745 3.79229 17.3075 3.79229C15.6406 3.79229 14.0415 4.45215 12.8596 5.62767C12.345 6.14395 11.9267 6.74793 11.6244 7.41121C11.2352 8.24088 11.0335 9.14605 11.0335 10.0625C11.0335 10.9789 11.2352 11.884 11.6244 12.7137C11.7228 12.9239 11.7337 13.1646 11.6547 13.3829C11.5757 13.6011 11.4132 13.779 11.203 13.8775C11.0989 13.9262 10.9862 13.954 10.8714 13.9592C10.7566 13.9644 10.6419 13.9469 10.5338 13.9078C10.3155 13.8287 10.1376 13.6662 10.0392 13.456H10.0305ZM6.14108 15.2585C5.38214 13.6386 4.98752 11.8719 4.985 10.083C4.98248 8.29413 5.37212 6.52641 6.1265 4.90434C6.20441 4.71911 6.3437 4.56635 6.52096 4.47171C6.69823 4.37708 6.90266 4.34634 7.09992 4.38466C7.29717 4.42299 7.47523 4.52803 7.60416 4.68215C7.7331 4.83628 7.80506 5.03008 7.80796 5.231C7.80807 5.36427 7.77973 5.49603 7.72483 5.61746C7.0731 7.0097 6.73528 8.52815 6.73528 10.0654C6.73528 11.6026 7.0731 13.1211 7.72483 14.5133C7.82365 14.7233 7.835 14.964 7.75637 15.1824C7.67774 15.4008 7.51558 15.579 7.30556 15.6778C7.09554 15.7766 6.85487 15.7879 6.63649 15.7093C6.4181 15.6307 6.2399 15.4685 6.14108 15.2585ZM26.8771 14.5133C27.5293 13.1212 27.8674 11.6027 27.8674 10.0654C27.8674 8.52806 27.5293 7.00956 26.8771 5.61746C26.8129 5.48382 26.7836 5.33605 26.7921 5.18801C26.8007 5.03997 26.8467 4.89652 26.9258 4.77114C27.005 4.64576 27.1147 4.54255 27.2447 4.47121C27.3747 4.39987 27.5207 4.36273 27.669 4.36329C27.8523 4.36272 28.0311 4.41969 28.1802 4.52619C28.3294 4.63268 28.4413 4.78331 28.5002 4.95684C29.2419 6.57362 29.6226 8.33252 29.6158 10.1113C29.609 11.89 29.2149 13.646 28.4609 15.257C28.3621 15.4671 28.1838 15.6292 27.9655 15.7079C27.7471 15.7865 27.5064 15.7751 27.2964 15.6763C27.0864 15.5775 26.9242 15.3993 26.8456 15.1809C26.767 14.9625 26.7783 14.7219 26.8771 14.5118V14.5133Z" fill="#263238"/>
</svg>
