<svg width="35" height="24" viewBox="0 0 35 24" fill="none" xmlns="http://www.w3.org/2000/svg">
<g clip-path="url(#clip0_0_50)">
<path fill-rule="evenodd" clip-rule="evenodd" d="M13.7681 16.4258L13.7671 6.83841L22.9217 11.6487L13.7681 16.4258ZM33.8688 5.17706C33.8688 5.17706 33.5374 2.8258 32.522 1.79038C31.2334 0.430807 29.7892 0.424396 29.1274 0.345488C24.386 -5.00679e-06 17.2739 0 17.2739 0H17.2591C17.2591 0 10.147 -5.00679e-06 5.40556 0.345488C4.74273 0.424396 3.29956 0.430807 2.00991 1.79038C0.994497 2.8258 0.664138 5.17706 0.664138 5.17706C0.664138 5.17706 0.325317 7.93887 0.325317 10.6996V13.2887C0.325317 16.0505 0.664138 18.8112 0.664138 18.8112C0.664138 18.8112 0.994497 21.1625 2.00991 22.1979C3.29956 23.5575 4.99261 23.5148 5.74649 23.6566C8.45708 23.919 17.2665 24 17.2665 24C17.2665 24 24.386 23.9893 29.1274 23.6439C29.7892 23.5639 31.2334 23.5575 32.522 22.1979C33.5374 21.1625 33.8688 18.8112 33.8688 18.8112C33.8688 18.8112 34.2077 16.0505 34.2077 13.2887V10.6996C34.2077 7.93887 33.8688 5.17706 33.8688 5.17706Z" fill="#DBDBDB"/>
</g>
<defs>
<clipPath id="clip0_0_50">
<rect width="33.8824" height="24" fill="white" transform="translate(0.325317)"/>
</clipPath>
</defs>
</svg>
